<svg width="684" height="352" viewBox="0 0 684 352" fill="none" xmlns="http://www.w3.org/2000/svg">
<g clip-path="url(#clip0_124_1436)">
<path d="M213.858 43.7435C216.583 43.7435 218.792 41.5389 218.792 38.8193C218.792 36.0997 216.583 33.895 213.858 33.895C211.134 33.895 208.925 36.0997 208.925 38.8193C208.925 41.5389 211.134 43.7435 213.858 43.7435Z" fill="#F2F2F2"/>
<path d="M194.198 43.7435C196.923 43.7435 199.131 41.5389 199.131 38.8193C199.131 36.0997 196.923 33.895 194.198 33.895C191.474 33.895 189.265 36.0997 189.265 38.8193C189.265 41.5389 191.474 43.7435 194.198 43.7435Z" fill="#F2F2F2"/>
<path d="M174.538 43.7435C177.262 43.7435 179.471 41.5389 179.471 38.8193C179.471 36.0997 177.262 33.895 174.538 33.895C171.813 33.895 169.605 36.0997 169.605 38.8193C169.605 41.5389 171.813 43.7435 174.538 43.7435Z" fill="#F2F2F2"/>
<path d="M154.877 43.7435C157.602 43.7435 159.81 41.5389 159.81 38.8193C159.81 36.0997 157.602 33.895 154.877 33.895C152.153 33.895 149.944 36.0997 149.944 38.8193C149.944 41.5389 152.153 43.7435 154.877 43.7435Z" fill="#F2F2F2"/>
<path d="M213.858 64.3029C216.583 64.3029 218.792 62.0982 218.792 59.3786C218.792 56.659 216.583 54.4543 213.858 54.4543C211.134 54.4543 208.925 56.659 208.925 59.3786C208.925 62.0982 211.134 64.3029 213.858 64.3029Z" fill="#F2F2F2"/>
<path d="M194.198 64.3029C196.923 64.3029 199.131 62.0982 199.131 59.3786C199.131 56.659 196.923 54.4543 194.198 54.4543C191.474 54.4543 189.265 56.659 189.265 59.3786C189.265 62.0982 191.474 64.3029 194.198 64.3029Z" fill="#F2F2F2"/>
<path d="M174.538 64.3029C177.262 64.3029 179.471 62.0982 179.471 59.3786C179.471 56.659 177.262 54.4543 174.538 54.4543C171.813 54.4543 169.605 56.659 169.605 59.3786C169.605 62.0982 171.813 64.3029 174.538 64.3029Z" fill="#F2F2F2"/>
<path d="M154.877 64.3029C157.602 64.3029 159.81 62.0982 159.81 59.3786C159.81 56.659 157.602 54.4543 154.877 54.4543C152.153 54.4543 149.944 56.659 149.944 59.3786C149.944 62.0982 152.153 64.3029 154.877 64.3029Z" fill="#F2F2F2"/>
<path d="M213.858 84.8622C216.583 84.8622 218.792 82.6575 218.792 79.9379C218.792 77.2183 216.583 75.0137 213.858 75.0137C211.134 75.0137 208.925 77.2183 208.925 79.9379C208.925 82.6575 211.134 84.8622 213.858 84.8622Z" fill="#F2F2F2"/>
<path d="M194.198 84.8622C196.923 84.8622 199.131 82.6575 199.131 79.9379C199.131 77.2183 196.923 75.0137 194.198 75.0137C191.474 75.0137 189.265 77.2183 189.265 79.9379C189.265 82.6575 191.474 84.8622 194.198 84.8622Z" fill="#F2F2F2"/>
<path d="M174.538 84.8622C177.262 84.8622 179.471 82.6575 179.471 79.9379C179.471 77.2183 177.262 75.0137 174.538 75.0137C171.813 75.0137 169.605 77.2183 169.605 79.9379C169.605 82.6575 171.813 84.8622 174.538 84.8622Z" fill="#F2F2F2"/>
<path d="M154.877 84.8622C157.602 84.8622 159.81 82.6575 159.81 79.9379C159.81 77.2183 157.602 75.0137 154.877 75.0137C152.153 75.0137 149.944 77.2183 149.944 79.9379C149.944 82.6575 152.153 84.8622 154.877 84.8622Z" fill="#F2F2F2"/>
<path d="M213.858 105.422C216.583 105.422 218.792 103.217 218.792 100.497C218.792 97.7777 216.583 95.573 213.858 95.573C211.134 95.573 208.925 97.7777 208.925 100.497C208.925 103.217 211.134 105.422 213.858 105.422Z" fill="#F2F2F2"/>
<path d="M194.198 105.422C196.923 105.422 199.131 103.217 199.131 100.497C199.131 97.7777 196.923 95.573 194.198 95.573C191.474 95.573 189.265 97.7777 189.265 100.497C189.265 103.217 191.474 105.422 194.198 105.422Z" fill="#F2F2F2"/>
<path d="M174.538 105.422C177.262 105.422 179.471 103.217 179.471 100.497C179.471 97.7777 177.262 95.573 174.538 95.573C171.813 95.573 169.605 97.7777 169.605 100.497C169.605 103.217 171.813 105.422 174.538 105.422Z" fill="#F2F2F2"/>
<path d="M154.877 105.422C157.602 105.422 159.81 103.217 159.81 100.497C159.81 97.7777 157.602 95.573 154.877 95.573C152.153 95.573 149.944 97.7777 149.944 100.497C149.944 103.217 152.153 105.422 154.877 105.422Z" fill="#F2F2F2"/>
<path d="M213.858 125.981C216.583 125.981 218.792 123.776 218.792 121.057C218.792 118.337 216.583 116.132 213.858 116.132C211.134 116.132 208.925 118.337 208.925 121.057C208.925 123.776 211.134 125.981 213.858 125.981Z" fill="#F2F2F2"/>
<path d="M194.198 125.981C196.923 125.981 199.131 123.776 199.131 121.057C199.131 118.337 196.923 116.132 194.198 116.132C191.474 116.132 189.265 118.337 189.265 121.057C189.265 123.776 191.474 125.981 194.198 125.981Z" fill="#F2F2F2"/>
<path d="M174.538 125.981C177.262 125.981 179.471 123.776 179.471 121.057C179.471 118.337 177.262 116.132 174.538 116.132C171.813 116.132 169.605 118.337 169.605 121.057C169.605 123.776 171.813 125.981 174.538 125.981Z" fill="#F2F2F2"/>
<path d="M154.877 125.981C157.602 125.981 159.81 123.776 159.81 121.057C159.81 118.337 157.602 116.132 154.877 116.132C152.153 116.132 149.944 118.337 149.944 121.057C149.944 123.776 152.153 125.981 154.877 125.981Z" fill="#F2F2F2"/>
<path d="M213.858 146.54C216.583 146.54 218.792 144.336 218.792 141.616C218.792 138.896 216.583 136.692 213.858 136.692C211.134 136.692 208.925 138.896 208.925 141.616C208.925 144.336 211.134 146.54 213.858 146.54Z" fill="#F2F2F2"/>
<path d="M194.198 146.54C196.923 146.54 199.131 144.336 199.131 141.616C199.131 138.896 196.923 136.692 194.198 136.692C191.474 136.692 189.265 138.896 189.265 141.616C189.265 144.336 191.474 146.54 194.198 146.54Z" fill="#F2F2F2"/>
<path d="M174.538 146.54C177.262 146.54 179.471 144.336 179.471 141.616C179.471 138.896 177.262 136.692 174.538 136.692C171.813 136.692 169.605 138.896 169.605 141.616C169.605 144.336 171.813 146.54 174.538 146.54Z" fill="#F2F2F2"/>
<path d="M154.877 146.54C157.602 146.54 159.81 144.336 159.81 141.616C159.81 138.896 157.602 136.692 154.877 136.692C152.153 136.692 149.944 138.896 149.944 141.616C149.944 144.336 152.153 146.54 154.877 146.54Z" fill="#F2F2F2"/>
<path d="M170.511 275.952V277.475C170.513 279.998 171.519 282.418 173.306 284.203C175.094 285.987 177.518 286.991 180.046 286.993H248.7C251.229 286.992 253.653 285.989 255.441 284.204C257.229 282.419 258.234 279.999 258.235 277.475V275.952C258.24 273.724 257.456 271.567 256.023 269.86C255.546 269.293 255.006 268.783 254.413 268.337C254.413 268.337 216.669 267.484 216.669 266.434H180.046C177.519 266.437 175.095 267.441 173.308 269.225C171.52 271.01 170.515 273.429 170.511 275.952Z" fill="#CCCCCC"/>
<path d="M219.884 286.615H209.967V350.577H219.884V286.615Z" fill="#CCCCCC"/>
<path d="M248.108 350.23C248.108 351.299 233.081 350.643 214.544 350.643C196.007 350.643 180.98 351.299 180.98 350.23C180.98 349.16 196.007 340.678 214.544 340.678C233.081 340.678 248.108 349.16 248.108 350.23Z" fill="#CCCCCC"/>
<path d="M234.474 274.66C235.19 273.701 235.686 272.597 235.929 271.426C236.171 270.255 236.153 269.045 235.876 267.882C235.599 266.718 235.07 265.629 234.326 264.692C233.582 263.755 232.641 262.992 231.57 262.457L210.552 190.967L194.547 198.792L220.24 266.603C219.459 268.459 219.387 270.537 220.038 272.443C220.688 274.348 222.017 275.95 223.772 276.943C225.526 277.936 227.585 278.252 229.557 277.831C231.53 277.411 233.279 276.282 234.474 274.66L234.474 274.66Z" fill="#A0616A"/>
<path d="M215.314 202.906L197.401 207.746C196.891 207.884 196.358 207.91 195.837 207.824C195.316 207.737 194.82 207.539 194.382 207.244C193.945 206.949 193.576 206.563 193.302 206.113C193.027 205.663 192.853 205.159 192.791 204.635L190.626 186.294C189.935 183.687 190.308 180.913 191.663 178.58C193.018 176.247 195.244 174.545 197.854 173.848C200.463 173.151 203.244 173.516 205.584 174.861C207.925 176.207 209.636 178.425 210.342 181.028L217.721 197.899C217.932 198.382 218.037 198.905 218.027 199.432C218.018 199.959 217.894 200.477 217.666 200.953C217.437 201.428 217.109 201.848 216.703 202.185C216.297 202.522 215.823 202.768 215.314 202.906H215.314Z" fill="#FF5300"/>
<path d="M239.156 342.733L248.508 342.732L252.957 318.521H239.154L239.156 342.733Z" fill="#A0616A"/>
<path d="M236.77 339.685L255.187 339.684H255.188C256.729 339.684 258.256 339.987 259.68 340.576C261.104 341.164 262.398 342.027 263.488 343.115C264.577 344.203 265.442 345.495 266.032 346.916C266.622 348.338 266.925 349.861 266.925 351.4V351.781L236.771 351.782L236.77 339.685Z" fill="#2F2E41"/>
<path d="M250.011 329.749C249.902 329.749 249.792 329.744 249.683 329.733L236.74 328.793C236.217 328.744 235.712 328.576 235.263 328.302C234.815 328.028 234.436 327.655 234.155 327.211C233.875 326.768 233.7 326.266 233.644 325.744C233.588 325.222 233.654 324.694 233.834 324.202L251.155 285.356C251.279 285.01 251.33 284.642 251.304 284.275C251.278 283.908 251.177 283.551 251.006 283.225C250.835 282.896 250.597 282.606 250.306 282.375C250.015 282.144 249.679 281.977 249.319 281.885C241.174 279.76 220.277 274.101 202.187 267.48C194.437 264.643 189.556 260.543 187.679 255.295C185.205 248.376 188.865 242.066 189.022 241.801L189.145 241.593L206.167 243.138L224.62 244.705L265.06 266.351C268.449 268.18 271.023 271.216 272.269 274.855C273.516 278.493 273.344 282.467 271.787 285.985L253.143 327.718C252.873 328.323 252.434 328.836 251.878 329.197C251.322 329.557 250.674 329.749 250.011 329.749Z" fill="#2F2E41"/>
<path d="M209.127 166.285C219.474 166.285 227.862 157.911 227.862 147.582C227.862 137.254 219.474 128.88 209.127 128.88C198.779 128.88 190.391 137.254 190.391 147.582C190.391 157.911 198.779 166.285 209.127 166.285Z" fill="#A0616A"/>
<path d="M233.816 341.971L243.168 341.97L247.618 317.759H233.814L233.816 341.971Z" fill="#A0616A"/>
<path d="M231.43 338.923L249.848 338.922H249.848C251.39 338.922 252.916 339.225 254.34 339.814C255.764 340.403 257.058 341.266 258.148 342.354C259.238 343.442 260.102 344.733 260.692 346.155C261.282 347.576 261.585 349.1 261.585 350.638V351.019L231.431 351.02L231.43 338.923Z" fill="#2F2E41"/>
<path d="M244.671 332.034C244.562 332.034 244.453 332.028 244.343 332.018L231.401 331.077C230.877 331.029 230.372 330.861 229.924 330.587C229.476 330.312 229.096 329.939 228.816 329.496C228.535 329.052 228.36 328.55 228.304 328.028C228.249 327.506 228.314 326.979 228.495 326.486L245.816 287.641C245.939 287.294 245.99 286.926 245.964 286.559C245.938 286.193 245.837 285.835 245.666 285.51C245.495 285.18 245.257 284.89 244.966 284.659C244.676 284.428 244.339 284.261 243.979 284.17C235.834 282.044 214.937 276.385 196.847 269.764C189.097 266.927 184.216 262.828 182.34 257.579C179.866 250.66 183.526 244.35 183.683 244.085L183.805 243.878L200.827 245.422L219.281 246.989L259.72 268.635C263.109 270.465 265.683 273.501 266.929 277.139C268.176 280.778 268.004 284.752 266.447 288.269L247.803 330.003C247.534 330.607 247.094 331.121 246.538 331.481C245.983 331.841 245.334 332.033 244.671 332.034Z" fill="#2F2E41"/>
<path d="M214.905 176.89L195.072 170.036C195.072 170.036 182.621 179.585 188.602 203.273C191.725 215.497 190.815 228.4 186.009 240.067C185.43 241.51 184.763 242.917 184.011 244.278C184.011 244.278 206.133 270.929 226.729 251.132L218.719 212.678C218.719 212.678 231.306 187.169 214.905 176.89Z" fill="#2F2E41"/>
<path d="M211.453 166.921C208.786 162.937 206.682 157.412 209.618 153.621C212.516 149.879 218.232 150.431 222.67 148.775C228.852 146.469 232.437 139.219 231.319 132.727C230.201 126.234 224.98 120.852 218.76 118.65C212.54 116.448 205.526 117.164 199.435 119.7C191.937 122.822 185.505 128.86 182.808 136.51C180.111 144.16 181.553 153.344 187.148 159.224C193.147 165.528 202.561 167.207 211.271 167.106" fill="#2F2E41"/>
<path d="M194.025 132.935C190.665 135.665 185.538 134.453 181.931 132.056C178.325 129.66 175.398 126.248 171.495 124.369C164.615 121.057 156.297 123.258 149.601 126.927C142.905 130.596 136.97 135.665 129.897 138.544C122.824 141.424 113.798 141.566 108.443 136.129C107.125 139.941 107.017 144.066 108.134 147.941C109.251 151.816 111.539 155.253 114.685 157.782C117.831 160.311 121.682 161.81 125.713 162.074C129.744 162.338 133.759 161.354 137.208 159.256C144.958 154.544 149.239 144.664 157.931 142.063C162.741 140.623 167.906 141.783 172.767 143.038C177.629 144.294 182.698 145.65 187.603 144.581C192.509 143.513 197.098 139.112 196.474 134.138L194.025 132.935Z" fill="#2F2E41"/>
<path d="M255.015 309.157C253.031 296.294 253.031 283.204 255.015 270.341C255.141 269.576 255.535 268.879 256.127 268.377C256.718 267.874 257.47 267.597 258.247 267.595H288.663C289.155 267.594 289.642 267.705 290.086 267.919C290.529 268.134 290.918 268.447 291.222 268.834C291.533 269.226 291.75 269.684 291.857 270.173C291.963 270.662 291.957 271.169 291.838 271.655C288.993 283.55 288.993 295.947 291.838 307.843C291.957 308.329 291.963 308.836 291.857 309.324C291.75 309.813 291.533 310.271 291.222 310.664C290.918 311.051 290.529 311.364 290.086 311.578C289.642 311.793 289.155 311.904 288.663 311.902H258.247C257.47 311.901 256.718 311.624 256.127 311.121C255.535 310.618 255.141 309.922 255.015 309.157Z" fill="#FF5300"/>
<path d="M279.303 286.386H263.342C262.735 286.385 262.153 286.144 261.724 285.716C261.295 285.287 261.054 284.707 261.053 284.101V283.209C261.054 282.603 261.295 282.023 261.724 281.594C262.153 281.166 262.735 280.925 263.342 280.924H279.303C279.91 280.925 280.491 281.166 280.92 281.594C281.349 282.023 281.591 282.603 281.591 283.209V284.101C281.591 284.707 281.349 285.287 280.92 285.716C280.491 286.144 279.91 286.385 279.303 286.386Z" fill="white"/>
<path d="M279.303 295.786H263.342C262.735 295.785 262.153 295.544 261.724 295.116C261.295 294.687 261.054 294.107 261.053 293.501V292.608C261.054 292.003 261.295 291.422 261.724 290.994C262.153 290.566 262.735 290.325 263.342 290.324H279.303C279.91 290.325 280.491 290.566 280.92 290.994C281.349 291.422 281.591 292.003 281.591 292.608V293.501C281.591 294.107 281.349 294.687 280.92 295.116C280.491 295.544 279.91 295.785 279.303 295.786Z" fill="white"/>
<path d="M263.013 271.234C263.466 270.127 263.671 268.934 263.612 267.74C263.554 266.545 263.234 265.378 262.674 264.321C262.115 263.263 261.33 262.341 260.375 261.619C259.42 260.897 258.318 260.393 257.147 260.142L218.903 196.161L205.364 207.729L247.214 266.982C246.922 268.975 247.372 271.005 248.48 272.687C249.587 274.37 251.274 275.589 253.222 276.113C255.169 276.637 257.242 276.43 259.046 275.531C260.851 274.632 262.262 273.103 263.013 271.234L263.013 271.234Z" fill="#A0616A"/>
<path d="M226.501 206.534L210.368 215.688C209.909 215.949 209.399 216.107 208.873 216.153C208.347 216.199 207.817 216.132 207.32 215.955C206.822 215.778 206.369 215.496 205.99 215.129C205.612 214.761 205.317 214.317 205.126 213.825L198.439 196.605C197.118 194.253 196.785 191.474 197.513 188.878C198.241 186.281 199.97 184.078 202.323 182.752C204.675 181.427 207.458 181.086 210.062 181.805C212.665 182.525 214.877 184.245 216.211 186.59L227.579 201.085C227.905 201.5 228.137 201.98 228.259 202.493C228.382 203.006 228.393 203.539 228.29 204.056C228.188 204.573 227.975 205.062 227.666 205.49C227.358 205.917 226.96 206.273 226.501 206.534Z" fill="#2F2E41"/>
<path d="M398.166 229.008H88.462C87.147 229.008 85.8858 229.529 84.9559 230.457C84.0261 231.386 83.5037 232.645 83.5037 233.957C83.5037 235.27 84.0261 236.529 84.9559 237.457C85.8858 238.385 87.147 238.907 88.462 238.907H97.2344V346.653C97.2344 347.966 97.7568 349.225 98.6866 350.153C99.6165 351.081 100.878 351.602 102.193 351.602C103.508 351.602 104.769 351.081 105.699 350.153C106.629 349.225 107.151 347.966 107.151 346.653V248.417L162.738 348.989C163.397 350.123 164.48 350.95 165.749 351.288C167.018 351.626 168.369 351.448 169.507 350.792C170.644 350.137 171.474 349.057 171.816 347.792C172.157 346.526 171.981 345.176 171.326 344.04L113.218 238.907H378.714V238.971L320.642 344.04C319.984 345.176 319.806 346.527 320.146 347.795C320.487 349.063 321.318 350.144 322.456 350.8C323.595 351.457 324.949 351.635 326.219 351.295C327.489 350.955 328.572 350.126 329.229 348.989L378.714 259.458V346.653C378.714 347.966 379.237 349.225 380.167 350.153C381.096 351.081 382.358 351.602 383.673 351.602C384.988 351.602 386.249 351.081 387.179 350.153C388.108 349.225 388.631 347.966 388.631 346.653V241.517L390.073 238.907H398.166C399.481 238.907 400.742 238.385 401.672 237.457C402.602 236.529 403.124 235.27 403.124 233.957C403.124 232.645 402.602 231.386 401.672 230.457C400.742 229.529 399.481 229.008 398.166 229.008Z" fill="#3F3D56"/>
<path d="M270.013 225.962H209.75C208.275 225.962 207.08 227.155 207.08 228.627C207.08 230.099 208.275 231.292 209.75 231.292H270.013C271.487 231.292 272.682 230.099 272.682 228.627C272.682 227.155 271.487 225.962 270.013 225.962Z" fill="#CCCCCC"/>
<path d="M310.442 231.292H242.551C241.237 231.291 239.976 230.769 239.047 229.841C238.117 228.913 237.594 227.655 237.593 226.343V189.031C237.594 187.719 238.117 186.461 239.047 185.533C239.976 184.605 241.237 184.083 242.551 184.082H310.442C311.756 184.083 313.017 184.605 313.946 185.533C314.876 186.461 315.399 187.719 315.4 189.031V226.343C315.399 227.655 314.876 228.913 313.946 229.841C313.017 230.769 311.756 231.291 310.442 231.292Z" fill="#CCCCCC"/>
<path d="M276.496 212.256C279.024 212.256 281.073 210.21 281.073 207.687C281.073 205.164 279.024 203.118 276.496 203.118C273.969 203.118 271.92 205.164 271.92 207.687C271.92 210.21 273.969 212.256 276.496 212.256Z" fill="white"/>
<path d="M362.253 139.363V5.72724C362.255 4.20881 362.86 2.75307 363.935 1.67937C365.011 0.605681 366.469 0.00172717 367.991 0H473.815C475.336 0.00172717 476.795 0.605681 477.87 1.67937C478.946 2.75307 479.551 4.20881 479.553 5.72724V139.363C479.551 140.881 478.946 142.337 477.87 143.411C476.795 144.485 475.336 145.088 473.815 145.09H367.991C366.469 145.088 365.011 144.485 363.935 143.411C362.86 142.337 362.255 140.881 362.253 139.363ZM367.991 1.27272C366.807 1.27405 365.673 1.74379 364.837 2.57889C364 3.41399 363.529 4.54623 363.528 5.72724V139.363C363.529 140.544 364 141.676 364.837 142.511C365.673 143.346 366.807 143.816 367.991 143.817H473.815C474.998 143.816 476.133 143.346 476.969 142.511C477.806 141.676 478.276 140.544 478.278 139.363V5.72724C478.276 4.54623 477.806 3.41399 476.969 2.57889C476.133 1.74379 474.998 1.27405 473.815 1.27272H367.991Z" fill="#E6E6E6"/>
<path d="M426.837 61.3717V33.932C426.838 33.1728 427.14 32.4449 427.678 31.9081C428.216 31.3712 428.945 31.0693 429.706 31.0684H453C453.761 31.0693 454.49 31.3712 455.028 31.9081C455.565 32.4449 455.868 33.1728 455.869 33.932V61.3717C455.868 62.1309 455.565 62.8588 455.028 63.3956C454.49 63.9325 453.761 64.2344 453 64.2353H429.706C428.945 64.2344 428.216 63.9325 427.678 63.3956C427.14 62.8588 426.838 62.1309 426.837 61.3717Z" fill="#FF5300"/>
<path d="M381.575 74.0989V46.6593C381.576 45.9001 381.878 45.1722 382.416 44.6353C382.954 44.0985 383.683 43.7965 384.443 43.7957H407.738C408.498 43.7965 409.227 44.0985 409.765 44.6353C410.303 45.1722 410.606 45.9001 410.606 46.6593V74.0989C410.606 74.8581 410.303 75.586 409.765 76.1229C409.227 76.6597 408.498 76.9617 407.738 76.9625H384.443C383.683 76.9617 382.954 76.6597 382.416 76.1229C381.878 75.586 381.576 74.8581 381.575 74.0989Z" fill="#CCCCCC"/>
<path d="M417.912 112.917V85.4772C417.913 84.718 418.216 83.9901 418.753 83.4533C419.291 82.9164 420.02 82.6144 420.781 82.6136H444.075C444.836 82.6144 445.565 82.9164 446.103 83.4533C446.641 83.9901 446.943 84.718 446.944 85.4772V112.917C446.943 113.676 446.641 114.404 446.103 114.941C445.565 115.478 444.836 115.78 444.075 115.78H420.781C420.02 115.78 419.291 115.478 418.753 114.941C418.216 114.404 417.913 113.676 417.912 112.917Z" fill="#FF6584"/>
<path d="M595.563 13.9249C598.288 13.9249 600.496 11.7202 600.496 9.00061C600.496 6.28102 598.288 4.07635 595.563 4.07635C592.839 4.07635 590.63 6.28102 590.63 9.00061C590.63 11.7202 592.839 13.9249 595.563 13.9249Z" fill="#F2F2F2"/>
<path d="M595.563 33.5502C598.288 33.5502 600.496 31.3455 600.496 28.6259C600.496 25.9063 598.288 23.7017 595.563 23.7017C592.839 23.7017 590.63 25.9063 590.63 28.6259C590.63 31.3455 592.839 33.5502 595.563 33.5502Z" fill="#F2F2F2"/>
<path d="M595.563 53.1754C598.288 53.1754 600.496 50.9708 600.496 48.2512C600.496 45.5316 598.288 43.3269 595.563 43.3269C592.839 43.3269 590.63 45.5316 590.63 48.2512C590.63 50.9708 592.839 53.1754 595.563 53.1754Z" fill="#F2F2F2"/>
<path d="M595.563 72.8007C598.288 72.8007 600.496 70.596 600.496 67.8764C600.496 65.1568 598.288 62.9521 595.563 62.9521C592.839 62.9521 590.63 65.1568 590.63 67.8764C590.63 70.596 592.839 72.8007 595.563 72.8007Z" fill="#F2F2F2"/>
<path d="M574.967 13.9249C577.692 13.9249 579.9 11.7202 579.9 9.00061C579.9 6.28102 577.692 4.07635 574.967 4.07635C572.243 4.07635 570.034 6.28102 570.034 9.00061C570.034 11.7202 572.243 13.9249 574.967 13.9249Z" fill="#F2F2F2"/>
<path d="M574.967 33.5502C577.692 33.5502 579.9 31.3455 579.9 28.6259C579.9 25.9063 577.692 23.7017 574.967 23.7017C572.243 23.7017 570.034 25.9063 570.034 28.6259C570.034 31.3455 572.243 33.5502 574.967 33.5502Z" fill="#F2F2F2"/>
<path d="M574.967 53.1754C577.692 53.1754 579.9 50.9708 579.9 48.2512C579.9 45.5316 577.692 43.3269 574.967 43.3269C572.243 43.3269 570.034 45.5316 570.034 48.2512C570.034 50.9708 572.243 53.1754 574.967 53.1754Z" fill="#F2F2F2"/>
<path d="M574.967 72.8007C577.692 72.8007 579.9 70.596 579.9 67.8764C579.9 65.1568 577.692 62.9521 574.967 62.9521C572.243 62.9521 570.034 65.1568 570.034 67.8764C570.034 70.596 572.243 72.8007 574.967 72.8007Z" fill="#F2F2F2"/>
<path d="M554.371 13.9249C557.096 13.9249 559.304 11.7202 559.304 9.00061C559.304 6.28102 557.096 4.07635 554.371 4.07635C551.647 4.07635 549.438 6.28102 549.438 9.00061C549.438 11.7202 551.647 13.9249 554.371 13.9249Z" fill="#F2F2F2"/>
<path d="M554.371 33.5502C557.096 33.5502 559.304 31.3455 559.304 28.6259C559.304 25.9063 557.096 23.7017 554.371 23.7017C551.647 23.7017 549.438 25.9063 549.438 28.6259C549.438 31.3455 551.647 33.5502 554.371 33.5502Z" fill="#F2F2F2"/>
<path d="M554.371 53.1754C557.096 53.1754 559.304 50.9708 559.304 48.2512C559.304 45.5316 557.096 43.3269 554.371 43.3269C551.647 43.3269 549.438 45.5316 549.438 48.2512C549.438 50.9708 551.647 53.1754 554.371 53.1754Z" fill="#F2F2F2"/>
<path d="M554.371 72.8007C557.096 72.8007 559.304 70.596 559.304 67.8764C559.304 65.1568 557.096 62.9521 554.371 62.9521C551.647 62.9521 549.438 65.1568 549.438 67.8764C549.438 70.596 551.647 72.8007 554.371 72.8007Z" fill="#F2F2F2"/>
<path d="M533.775 13.9249C536.5 13.9249 538.708 11.7202 538.708 9.00061C538.708 6.28102 536.5 4.07635 533.775 4.07635C531.051 4.07635 528.842 6.28102 528.842 9.00061C528.842 11.7202 531.051 13.9249 533.775 13.9249Z" fill="#F2F2F2"/>
<path d="M533.775 33.5502C536.5 33.5502 538.708 31.3455 538.708 28.6259C538.708 25.9063 536.5 23.7017 533.775 23.7017C531.051 23.7017 528.842 25.9063 528.842 28.6259C528.842 31.3455 531.051 33.5502 533.775 33.5502Z" fill="#F2F2F2"/>
<path d="M533.775 53.1754C536.5 53.1754 538.708 50.9708 538.708 48.2512C538.708 45.5316 536.5 43.3269 533.775 43.3269C531.051 43.3269 528.842 45.5316 528.842 48.2512C528.842 50.9708 531.051 53.1754 533.775 53.1754Z" fill="#F2F2F2"/>
<path d="M533.775 72.8007C536.5 72.8007 538.708 70.596 538.708 67.8764C538.708 65.1568 536.5 62.9521 533.775 62.9521C531.051 62.9521 528.842 65.1568 528.842 67.8764C528.842 70.596 531.051 72.8007 533.775 72.8007Z" fill="#F2F2F2"/>
<path d="M513.179 13.9249C515.904 13.9249 518.112 11.7202 518.112 9.00061C518.112 6.28102 515.904 4.07635 513.179 4.07635C510.455 4.07635 508.246 6.28102 508.246 9.00061C508.246 11.7202 510.455 13.9249 513.179 13.9249Z" fill="#F2F2F2"/>
<path d="M513.179 33.5502C515.904 33.5502 518.112 31.3455 518.112 28.6259C518.112 25.9063 515.904 23.7017 513.179 23.7017C510.455 23.7017 508.246 25.9063 508.246 28.6259C508.246 31.3455 510.455 33.5502 513.179 33.5502Z" fill="#F2F2F2"/>
<path d="M513.179 53.1754C515.904 53.1754 518.112 50.9708 518.112 48.2512C518.112 45.5316 515.904 43.3269 513.179 43.3269C510.455 43.3269 508.246 45.5316 508.246 48.2512C508.246 50.9708 510.455 53.1754 513.179 53.1754Z" fill="#F2F2F2"/>
<path d="M513.179 72.8007C515.904 72.8007 518.112 70.596 518.112 67.8764C518.112 65.1568 515.904 62.9521 513.179 62.9521C510.455 62.9521 508.246 65.1568 508.246 67.8764C508.246 70.596 510.455 72.8007 513.179 72.8007Z" fill="#F2F2F2"/>
<path d="M492.583 13.9249C495.307 13.9249 497.516 11.7202 497.516 9.00061C497.516 6.28102 495.307 4.07635 492.583 4.07635C489.858 4.07635 487.65 6.28102 487.65 9.00061C487.65 11.7202 489.858 13.9249 492.583 13.9249Z" fill="#F2F2F2"/>
<path d="M492.583 33.5502C495.307 33.5502 497.516 31.3455 497.516 28.6259C497.516 25.9063 495.307 23.7017 492.583 23.7017C489.858 23.7017 487.65 25.9063 487.65 28.6259C487.65 31.3455 489.858 33.5502 492.583 33.5502Z" fill="#F2F2F2"/>
<path d="M492.583 53.1754C495.307 53.1754 497.516 50.9708 497.516 48.2512C497.516 45.5316 495.307 43.3269 492.583 43.3269C489.858 43.3269 487.65 45.5316 487.65 48.2512C487.65 50.9708 489.858 53.1754 492.583 53.1754Z" fill="#F2F2F2"/>
<path d="M492.583 72.8007C495.307 72.8007 497.516 70.596 497.516 67.8764C497.516 65.1568 495.307 62.9521 492.583 62.9521C489.858 62.9521 487.65 65.1568 487.65 67.8764C487.65 70.596 489.858 72.8007 492.583 72.8007Z" fill="#F2F2F2"/>
<path d="M512.457 183.703C512.052 182.594 511.887 181.412 511.972 180.235C512.057 179.058 512.39 177.912 512.949 176.872C513.509 175.832 514.282 174.922 515.218 174.201C516.154 173.481 517.233 172.965 518.382 172.69C518.747 172.604 519.117 172.544 519.489 172.51L538.028 140.073L533.347 132.045L544.999 123.072L553.914 135.431C554.977 136.917 555.532 138.706 555.496 140.531C555.461 142.357 554.836 144.122 553.716 145.565L528.264 178.09C528.357 178.349 528.436 178.612 528.501 178.878C528.777 180.026 528.807 181.219 528.589 182.379C528.371 183.539 527.91 184.64 527.236 185.61C526.562 186.58 525.69 187.397 524.678 188.007C523.665 188.617 522.535 189.006 521.361 189.15C521.021 189.193 520.678 189.214 520.334 189.214C518.614 189.209 516.938 188.678 515.53 187.692C514.121 186.707 513.049 185.315 512.457 183.703Z" fill="#FFB8B8"/>
<path d="M476.288 343.332L466.936 343.331L462.487 307.323L476.29 307.324L476.288 343.332Z" fill="#FFB8B8"/>
<path d="M460.256 340.664H478.292V351.999H448.9C448.9 350.511 449.194 349.037 449.765 347.661C450.335 346.286 451.172 345.036 452.226 343.984C453.281 342.931 454.533 342.096 455.91 341.527C457.288 340.957 458.765 340.664 460.256 340.664Z" fill="#2F2E41"/>
<path d="M553.333 343.332L543.981 343.331L539.532 307.323L553.334 307.324L553.333 343.332Z" fill="#FFB8B8"/>
<path d="M537.301 340.664H555.337V351.999H525.945C525.945 350.511 526.239 349.037 526.809 347.661C527.38 346.286 528.216 345.036 529.271 343.984C530.325 342.931 531.577 342.096 532.955 341.527C534.333 340.957 535.81 340.664 537.301 340.664Z" fill="#2F2E41"/>
<path d="M547.593 124.825L526.597 132.789L521.47 118.575C520.79 116.688 520.799 114.621 521.498 112.74C522.196 110.859 523.538 109.285 525.286 108.296C527.055 107.296 529.123 106.96 531.119 107.348C533.114 107.737 534.904 108.825 536.166 110.416L547.593 124.825Z" fill="#FF5300"/>
<path d="M477.096 314.168L459.486 310.159C458.55 309.944 457.73 309.384 457.19 308.59C456.651 307.796 456.432 306.828 456.579 305.88C463.644 261.176 470.442 234.996 487.961 201.749C488.206 201.129 490.941 188.547 492.726 180.211C492.706 179.293 493.021 178.398 493.612 177.695C494.204 176.991 495.031 176.526 495.941 176.386L528.776 171.342C529.271 171.17 529.794 171.092 530.318 171.11L530.646 171.172L530.642 171.494C530.638 171.828 530.306 171.878 530.181 171.898L529.744 171.965C530.242 172.196 530.699 172.506 531.098 172.883C545.485 190.156 552.966 246.775 562.468 309.325C562.52 309.833 562.458 310.346 562.286 310.826C562.114 311.307 561.836 311.743 561.473 312.102C561.129 312.477 560.713 312.778 560.249 312.988C559.785 313.197 559.283 313.311 558.774 313.321L537.796 313.831C536.874 313.852 535.977 313.538 535.27 312.947C534.563 312.356 534.096 311.529 533.955 310.619L519.825 229.106C519.727 228.47 519.429 227.88 518.973 227.425C518.517 226.969 517.927 226.67 517.29 226.572C516.652 226.474 515.999 226.581 515.427 226.879C514.855 227.176 514.393 227.648 514.108 228.226C502.708 251.401 492.077 271.443 481.607 311.428C481.399 312.238 480.927 312.957 480.265 313.471C479.603 313.985 478.789 314.264 477.951 314.265C477.663 314.265 477.376 314.232 477.096 314.168Z" fill="#2F2E41"/>
<path d="M494.188 181.142C493.746 180.83 493.376 180.428 493.102 179.962C492.828 179.496 492.657 178.977 492.599 178.44C489.91 153.381 491.783 133.77 498.325 118.487C499.477 115.851 501.213 113.51 503.401 111.64C505.59 109.77 508.175 108.419 510.962 107.69L527.934 106.834L528.022 106.877C531.852 108.749 534.976 111.804 536.929 115.588C538.883 119.372 539.563 123.684 538.869 127.884C533.41 142.248 528.839 157.203 532.325 169.267C532.471 169.771 532.514 170.299 532.45 170.821C532.387 171.342 532.219 171.845 531.956 172.3C531.701 172.739 531.359 173.122 530.95 173.424C530.541 173.727 530.075 173.942 529.579 174.058L497.252 181.734C496.729 181.859 496.185 181.87 495.656 181.768C495.128 181.666 494.628 181.453 494.188 181.142Z" fill="#FF5300"/>
<path d="M486.882 145.181L454.329 119.545C454.07 119.636 453.806 119.714 453.539 119.778C452.39 120.046 451.197 120.07 450.039 119.848C448.88 119.627 447.781 119.164 446.813 118.49C445.838 117.816 445.019 116.942 444.411 115.926C443.802 114.911 443.418 113.777 443.283 112.602C443.065 110.722 443.49 108.824 444.488 107.215C445.486 105.606 447 104.382 448.783 103.74C449.896 103.341 451.08 103.182 452.259 103.272C453.438 103.363 454.585 103.7 455.624 104.264C456.663 104.827 457.571 105.604 458.288 106.542C459.006 107.48 459.517 108.559 459.787 109.707C459.871 110.071 459.929 110.441 459.962 110.813L492.368 129.474L500.432 124.84L509.365 136.515L496.844 145.423C495.378 146.457 493.618 146.992 491.823 146.949C490.028 146.905 488.296 146.285 486.882 145.181H486.882Z" fill="#FFB8B8"/>
<path d="M513.337 140.15L494.764 127.542L503.493 115.202C504.652 113.563 506.354 112.386 508.298 111.879C510.242 111.372 512.304 111.567 514.118 112.43C515.953 113.303 517.415 114.802 518.239 116.657C519.064 118.512 519.197 120.6 518.614 122.544L513.337 140.15Z" fill="#FF5300"/>
<path d="M522.27 100.507C532.617 100.507 541.006 92.1333 541.006 81.8044C541.006 71.4755 532.617 63.1022 522.27 63.1022C511.923 63.1022 503.535 71.4755 503.535 81.8044C503.535 92.1333 511.923 100.507 522.27 100.507Z" fill="#FFB8B8"/>
<path d="M515.401 79.0189C510.586 82.3087 504.263 85.6905 499.345 82.1871C496.115 79.8866 495.098 75.6268 496.407 71.8885C498.762 65.1659 505.233 62.2063 511.42 59.9377C519.463 56.9886 528.222 54.6424 536.525 56.7544C544.829 58.8665 552.167 66.8916 550.668 75.3134C549.463 82.0859 543.063 87.7212 543.972 94.5398C544.886 101.402 552.617 105.014 559.443 106.241C566.268 107.467 573.906 107.861 578.811 112.755C585.069 118.998 583.506 130.157 577.618 136.748C571.73 143.34 562.845 146.328 554.235 148.359C542.827 151.05 530.489 152.464 519.655 147.998C508.82 143.532 500.389 131.509 503.528 120.235C504.853 115.473 507.976 111.449 510.995 107.531C514.013 103.613 517.069 99.5158 518.22 94.7088C519.18 90.703 518.47 86.0521 515.808 83.0472C515.324 82.5213 515.02 81.8558 514.938 81.1462C514.857 80.4367 515.003 79.7196 515.355 79.098L515.401 79.0189Z" fill="#2F2E41"/>
</g>
<defs>
<clipPath id="clip0_124_1436">
<rect width="684" height="352" fill="white"/>
</clipPath>
</defs>
</svg>
