<svg width="307" height="207" viewBox="0 0 307 207" fill="none" xmlns="http://www.w3.org/2000/svg">
<g clip-path="url(#clip0_141_1661)">
<path d="M244.566 91.6066L245.477 84.2547C245.801 81.6419 247.143 79.2656 249.208 77.6486C251.273 76.0315 253.891 75.3062 256.487 75.6322C259.083 75.9582 261.444 77.3087 263.05 79.3867C264.657 81.4648 265.378 84.1 265.054 86.7128L264.143 94.0648C264.099 94.4156 263.918 94.7345 263.641 94.9517C263.364 95.1688 263.012 95.2664 262.664 95.223L245.717 93.0951C245.368 93.0509 245.052 92.8694 244.836 92.5904C244.62 92.3113 244.523 91.9575 244.566 91.6066Z" fill="#2F2E41"/>
<path d="M252.684 93.8C256.678 93.8 259.916 90.5412 259.916 86.5212C259.916 82.5012 256.678 79.2423 252.684 79.2423C248.69 79.2423 245.452 82.5012 245.452 86.5212C245.452 90.5412 248.69 93.8 252.684 93.8Z" fill="#FFB8B8"/>
<path d="M243.089 84.5521C243.347 82.4863 244.41 80.6079 246.042 79.3292C247.675 78.0505 249.745 77.4759 251.798 77.7313L253.259 77.9147C255.311 78.1748 257.178 79.2438 258.448 80.887C259.719 82.5303 260.29 84.6136 260.036 86.68L260.018 86.8271L256.93 86.4394L256.245 83.3394L255.666 86.2807L254.071 86.0804L253.725 84.5163L253.433 86.0003L243.071 84.6991L243.089 84.5521Z" fill="#2F2E41"/>
<path d="M217.313 112.486C217.534 112.923 217.847 113.306 218.231 113.607C218.615 113.909 219.06 114.122 219.534 114.232C220.009 114.342 220.502 114.346 220.978 114.243C221.454 114.14 221.902 113.934 222.291 113.638L228.859 117.511L232.171 114.068L222.819 108.73C222.282 108.106 221.536 107.702 220.723 107.594C219.91 107.487 219.087 107.683 218.408 108.146C217.729 108.609 217.243 109.307 217.041 110.107C216.839 110.907 216.936 111.753 217.313 112.486Z" fill="#FFB8B8"/>
<path d="M238.841 119.445C233.996 119.445 225.47 117.262 224.998 117.14L224.849 117.102L226.19 110.264L239.213 112.852L246.288 102.825L254.41 101.994L254.183 102.295C254.078 102.435 243.608 116.307 241.978 118.634C241.567 119.221 240.393 119.445 238.841 119.445Z" fill="#3F3D56"/>
<path d="M240.14 145.11L239.946 145.017C239.905 144.997 235.788 142.981 233.656 139.047C231.534 135.132 241.468 118.521 242.163 117.369L242.173 112.094L245.746 102.384L250.303 99.7911L246.391 108.98L240.14 145.11Z" fill="#3F3D56"/>
<path d="M235.574 201.805L231.219 201.804L229.147 184.896L235.575 184.896L235.574 201.805Z" fill="#FFB8B8"/>
<path d="M236.685 206.054L222.641 206.053V205.875C222.641 204.415 223.217 203.016 224.242 201.984C225.267 200.953 226.658 200.373 228.107 200.373H228.108L236.685 200.373L236.685 206.054Z" fill="#2F2E41"/>
<path d="M282.358 197.963L278.219 199.328L271.018 183.909L277.127 181.895L282.358 197.963Z" fill="#FFB8B8"/>
<path d="M284.728 201.653L271.382 206.054L271.327 205.884C270.876 204.497 270.99 202.987 271.645 201.685C272.3 200.384 273.442 199.397 274.819 198.943L274.82 198.943L282.971 196.255L284.728 201.653Z" fill="#2F2E41"/>
<path d="M273.925 195.198L261.508 174.335L251.027 152.046L241.595 171.735L237.848 197.236L224.708 197.42L224.759 197.213L244.868 116.794L260.617 119.162L259.9 129.625L260.327 130.236C263.885 135.323 267.563 140.582 265.453 146.252L271.434 164.125L284.673 193.887L273.925 195.198Z" fill="#2F2E41"/>
<path d="M245.588 134.223C243.306 134.223 240.702 131.601 242.053 127.123L241.965 127.06L245.21 112.633C242.378 108.557 246.111 105.194 246.461 104.894L248.243 101.666L256.105 96.6472L260.083 129.913L260.024 129.969C257.151 132.736 247.502 134.223 245.588 134.223Z" fill="#FF5300"/>
<path d="M261.689 141.73C261.376 141.735 261.064 141.701 260.76 141.631C260.454 141.554 259.959 141.162 259.194 138.655C256.153 128.69 252.563 98.7065 255.172 95.7724L255.231 95.7052L259.514 96.4236C259.87 96.1591 261.738 94.8466 263.462 95.0748C263.817 95.1198 264.159 95.2375 264.467 95.4207C264.775 95.6039 265.042 95.8487 265.252 96.1399L265.282 96.1788L266.646 115.715L271.645 138.706L271.525 138.76C271.234 138.894 264.993 141.73 261.689 141.73Z" fill="#3F3D56"/>
<path d="M258.808 134.094C259.295 134.078 259.772 133.954 260.207 133.732C260.641 133.51 261.021 133.195 261.321 132.809C261.621 132.422 261.834 131.975 261.943 131.497C262.053 131.02 262.057 130.524 261.956 130.044L268.225 125.698L266.53 121.219L257.762 127.482C256.973 127.707 256.294 128.215 255.852 128.911C255.411 129.606 255.238 130.441 255.367 131.256C255.496 132.071 255.918 132.81 256.552 133.333C257.186 133.856 257.989 134.127 258.808 134.094Z" fill="#FFB8B8"/>
<path d="M266.156 129.181L260.572 125.059L268.422 114.285L262.398 103.586L265.093 95.8289L265.267 96.163C265.348 96.3186 273.393 111.743 274.796 114.215C276.256 116.787 266.663 128.561 266.254 129.061L266.156 129.181Z" fill="#3F3D56"/>
<path d="M140.539 177.672L135.786 175.657L132.525 151.677H89.1062L85.5721 175.559L81.3199 177.699C81.1164 177.802 80.9533 177.97 80.8569 178.177C80.7605 178.385 80.7365 178.619 80.7887 178.842C80.841 179.065 80.9665 179.263 81.1449 179.405C81.3232 179.547 81.544 179.624 81.7715 179.624H140.147C140.38 179.624 140.606 179.543 140.786 179.395C140.967 179.246 141.091 179.039 141.137 178.809C141.183 178.579 141.149 178.34 141.04 178.133C140.93 177.926 140.754 177.763 140.539 177.672Z" fill="#E6E6E6"/>
<path d="M217.697 154.867H4.41083C3.29178 154.865 2.21942 154.415 1.42901 153.618C0.638609 152.821 0.19471 151.74 0.194702 150.614V120.343H221.913V150.614C221.913 151.74 221.469 152.821 220.679 153.618C219.889 154.415 218.816 154.865 217.697 154.867Z" fill="#CCCCCC"/>
<path d="M222.136 134.65H0V5.12685C0.00156038 3.76757 0.538757 2.46442 1.49374 1.50329C2.44872 0.542154 3.7435 0.00152443 5.09403 0H217.042C218.393 0.00152093 219.688 0.54215 220.643 1.50328C221.598 2.46442 222.135 3.76757 222.136 5.12685V134.65Z" fill="#3F3D56"/>
<path d="M208.869 125.249H13.2673C12.2262 125.248 11.228 124.831 10.4917 124.09C9.75551 123.349 9.34138 122.345 9.34021 121.297V13.3533C9.34137 12.3053 9.75549 11.3006 10.4917 10.5596C11.2279 9.81861 12.2261 9.40178 13.2673 9.40057H208.869C209.91 9.40178 210.908 9.81861 211.645 10.5596C212.381 11.3006 212.795 12.3053 212.796 13.3533V121.297C212.795 122.345 212.381 123.349 211.645 124.09C210.908 124.831 209.91 125.248 208.869 125.249Z" fill="white"/>
<path d="M165.925 179.875H56.0135C55.9009 179.877 55.7907 179.842 55.7 179.775C55.6093 179.707 55.5433 179.612 55.5122 179.503C55.4928 179.429 55.4905 179.351 55.5056 179.276C55.5206 179.201 55.5526 179.13 55.5991 179.069C55.6456 179.009 55.7053 178.959 55.7737 178.926C55.842 178.892 55.9172 178.874 55.9933 178.874H165.884C166.003 178.87 166.119 178.906 166.215 178.977C166.311 179.048 166.38 179.15 166.41 179.265C166.427 179.338 166.426 179.414 166.409 179.487C166.392 179.56 166.359 179.629 166.313 179.687C166.266 179.746 166.207 179.793 166.14 179.825C166.073 179.858 165.999 179.875 165.925 179.875Z" fill="#CCCCCC"/>
<path d="M206.781 26.8517H159.554V63.1657H206.781V26.8517Z" fill="#F2F2F2"/>
<path d="M204.434 28.6562H161.9V61.3613H204.434V28.6562Z" fill="white"/>
<path d="M183.914 52.9153C183.92 52.9153 183.925 52.9152 183.931 52.9149C186.81 52.7633 189.524 51.5137 191.52 49.4201C193.517 47.3266 194.646 44.5463 194.678 41.6447C194.711 38.7431 193.644 35.9381 191.694 33.8C189.745 31.6619 187.06 30.3514 184.185 30.1349C184.149 30.1321 184.114 30.1367 184.08 30.1484C184.046 30.1602 184.015 30.1788 183.989 30.2032C183.963 30.2271 183.942 30.2562 183.928 30.2887C183.913 30.3212 183.906 30.3563 183.905 30.3918L183.657 52.6517C183.657 52.7209 183.684 52.7875 183.732 52.8369C183.78 52.8863 183.845 52.9145 183.914 52.9153Z" fill="#3F3D56"/>
<path d="M175.02 33.8157C175.109 33.8168 175.193 33.853 175.255 33.9165L182.869 41.7533C182.899 41.7847 182.923 41.8218 182.94 41.8626C182.956 41.9034 182.964 41.9471 182.963 41.991L182.845 52.6425C182.844 52.6882 182.835 52.7333 182.816 52.7751C182.798 52.8168 182.771 52.8542 182.737 52.885C182.704 52.9162 182.664 52.94 182.621 52.9551C182.577 52.9703 182.532 52.9763 182.486 52.9728C180.369 52.8134 178.338 52.0629 176.622 50.8057C174.905 49.5485 173.571 47.8345 172.769 45.8562C171.967 43.8779 171.729 41.7137 172.082 39.6068C172.435 37.4999 173.365 35.5338 174.767 33.9294C174.797 33.8948 174.834 33.8669 174.876 33.8473C174.917 33.8278 174.962 33.8171 175.008 33.8158C175.012 33.8157 175.016 33.8156 175.02 33.8157Z" fill="#E6E6E6"/>
<path d="M182.763 30.0439C182.848 30.0449 182.929 30.0784 182.991 30.1376C183.023 30.1691 183.05 30.2072 183.067 30.2494C183.085 30.2916 183.093 30.337 183.093 30.3827L182.986 39.9931C182.985 40.0593 182.965 40.1237 182.928 40.1783C182.89 40.233 182.838 40.2752 182.777 40.2999C182.716 40.3245 182.649 40.3304 182.585 40.3168C182.52 40.3031 182.462 40.2706 182.416 40.2233L175.772 33.3847C175.74 33.3521 175.715 33.3135 175.699 33.2711C175.683 33.2287 175.675 33.1834 175.677 33.1379C175.679 33.0925 175.689 33.0479 175.709 33.0068C175.728 32.9657 175.756 32.929 175.789 32.899C177.722 31.1871 180.171 30.1813 182.742 30.0443C182.749 30.0439 182.756 30.0438 182.763 30.0439Z" fill="#FF5300"/>
<path d="M179.34 57.5312C179.335 57.9366 179.212 58.3316 178.984 58.6662C178.757 59.0008 178.435 59.2599 178.062 59.4109C177.688 59.5618 177.278 59.5978 176.884 59.5143C176.489 59.4307 176.129 59.2314 175.847 58.9415C175.565 58.6516 175.375 58.2841 175.301 57.8856C175.227 57.4871 175.272 57.0754 175.43 56.7025C175.589 56.3297 175.853 56.0125 176.191 55.791C176.528 55.5696 176.923 55.4538 177.326 55.4584C177.866 55.4651 178.381 55.6871 178.759 56.0757C179.136 56.4643 179.345 56.9877 179.34 57.5312Z" fill="#FF5300"/>
<path d="M185.159 57.5969C185.155 58.0023 185.031 58.3973 184.803 58.7319C184.576 59.0664 184.255 59.3256 183.881 59.4765C183.507 59.6275 183.097 59.6635 182.703 59.5799C182.308 59.4964 181.948 59.297 181.666 59.0071C181.384 58.7172 181.195 58.3498 181.12 57.9513C181.046 57.5527 181.091 57.141 181.249 56.7682C181.408 56.3954 181.672 56.0782 182.01 55.8567C182.347 55.6352 182.742 55.5194 183.145 55.524C183.685 55.5307 184.2 55.7527 184.578 56.1413C184.956 56.5299 185.165 57.0534 185.159 57.5969Z" fill="#3F3D56"/>
<path d="M190.978 57.6625C190.974 58.068 190.85 58.4629 190.622 58.7975C190.395 59.1321 190.074 59.3912 189.7 59.5422C189.326 59.6931 188.916 59.7291 188.522 59.6456C188.128 59.562 187.767 59.3627 187.485 59.0728C187.204 58.7829 187.014 58.4154 186.939 58.0169C186.865 57.6184 186.91 57.2067 187.069 56.8339C187.227 56.461 187.492 56.1438 187.829 55.9224C188.166 55.7009 188.561 55.5851 188.964 55.5897C189.504 55.5964 190.02 55.8184 190.397 56.207C190.775 56.5956 190.984 57.119 190.978 57.6625Z" fill="#E6E6E6"/>
<path d="M206.284 68.8809H159.057V105.195H206.284V68.8809Z" fill="#F2F2F2"/>
<path d="M203.937 70.6853H161.403V103.39H203.937V70.6853Z" fill="white"/>
<path d="M168.62 81.4345C169.595 81.4345 170.386 80.6387 170.386 79.657C170.386 78.6753 169.595 77.8795 168.62 77.8795C167.645 77.8795 166.854 78.6753 166.854 79.657C166.854 80.6387 167.645 81.4345 168.62 81.4345Z" fill="#3F3D56"/>
<path d="M196.995 78.2738C197.153 78.2735 197.309 78.3045 197.454 78.365C197.6 78.4255 197.732 78.5142 197.843 78.6262C197.955 78.7381 198.043 78.8711 198.104 79.0175C198.164 79.1639 198.195 79.3208 198.195 79.4793C198.195 79.6377 198.164 79.7946 198.104 79.941C198.043 80.0874 197.955 80.2204 197.843 80.3324C197.732 80.4443 197.6 80.5331 197.454 80.5935C197.309 80.654 197.153 80.685 196.995 80.6847H178.421C178.104 80.6847 177.799 80.5577 177.574 80.3316C177.35 80.1056 177.224 79.799 177.224 79.4793C177.224 79.1596 177.35 78.8529 177.574 78.6269C177.799 78.4008 178.104 78.2738 178.421 78.2738H196.995ZM196.995 77.9786H178.421C178.225 77.9783 178.031 78.0169 177.85 78.0922C177.669 78.1675 177.504 78.278 177.366 78.4173C177.227 78.5567 177.117 78.7222 177.042 78.9045C176.967 79.0867 176.928 79.282 176.928 79.4793C176.928 79.6765 176.967 79.8718 177.042 80.0541C177.117 80.2363 177.227 80.4018 177.366 80.5412C177.504 80.6806 177.669 80.7911 177.85 80.8664C178.031 80.9416 178.225 80.9802 178.421 80.9799H196.995C197.191 80.9802 197.385 80.9416 197.567 80.8664C197.748 80.7911 197.912 80.6806 198.051 80.5412C198.19 80.4018 198.3 80.2363 198.375 80.0541C198.45 79.8718 198.489 79.6765 198.489 79.4793C198.489 79.282 198.45 79.0867 198.375 78.9045C198.3 78.7222 198.19 78.5567 198.051 78.4173C197.912 78.278 197.748 78.1675 197.567 78.0922C197.385 78.0169 197.191 77.9783 196.995 77.9786Z" fill="#3F3D56"/>
<path d="M189.666 80.9799H175.684C175.289 80.9799 174.909 80.8218 174.63 80.5404C174.35 80.259 174.193 79.8773 174.193 79.4793C174.193 79.0812 174.35 78.6995 174.63 78.4181C174.909 78.1367 175.289 77.9786 175.684 77.9786H189.666C190.062 77.9786 190.441 78.1367 190.721 78.4181C191 78.6995 191.157 79.0812 191.157 79.4793C191.157 79.8773 191 80.259 190.721 80.5404C190.441 80.8218 190.062 80.9799 189.666 80.9799Z" fill="#FF5300"/>
<path d="M168.62 88.8154C169.595 88.8154 170.386 88.0196 170.386 87.0379C170.386 86.0562 169.595 85.2604 168.62 85.2604C167.645 85.2604 166.854 86.0562 166.854 87.0379C166.854 88.0196 167.645 88.8154 168.62 88.8154Z" fill="#3F3D56"/>
<path d="M196.995 85.6547C197.153 85.6545 197.309 85.6855 197.454 85.7459C197.6 85.8064 197.732 85.8951 197.843 86.0071C197.955 86.1191 198.043 86.252 198.104 86.3984C198.164 86.5448 198.195 86.7017 198.195 86.8602C198.195 87.0186 198.164 87.1756 198.104 87.3219C198.043 87.4683 197.955 87.6013 197.843 87.7133C197.732 87.8252 197.6 87.914 197.454 87.9744C197.309 88.0349 197.153 88.0659 196.995 88.0656H178.421C178.104 88.0656 177.799 87.9386 177.574 87.7126C177.35 87.4865 177.224 87.1799 177.224 86.8602C177.224 86.5405 177.35 86.2339 177.574 86.0078C177.799 85.7817 178.104 85.6547 178.421 85.6547H196.995ZM196.995 85.3595H178.421C178.026 85.3595 177.647 85.5176 177.367 85.799C177.087 86.0805 176.93 86.4622 176.93 86.8602C176.93 87.2582 177.087 87.6399 177.367 87.9213C177.647 88.2028 178.026 88.3609 178.421 88.3609H196.995C197.391 88.3609 197.77 88.2028 198.05 87.9213C198.329 87.6399 198.486 87.2582 198.486 86.8602C198.486 86.4622 198.329 86.0805 198.05 85.799C197.77 85.5176 197.391 85.3595 196.995 85.3595Z" fill="#3F3D56"/>
<path d="M194.946 88.3608H175.684C175.289 88.3608 174.909 88.2027 174.63 87.9213C174.35 87.6398 174.193 87.2581 174.193 86.8601C174.193 86.4621 174.35 86.0804 174.63 85.799C174.909 85.5176 175.289 85.3595 175.684 85.3595H194.946C195.342 85.3595 195.721 85.5176 196.001 85.799C196.28 86.0804 196.438 86.4621 196.438 86.8601C196.438 87.2581 196.28 87.6398 196.001 87.9213C195.721 88.2027 195.342 88.3608 194.946 88.3608Z" fill="#FF5300"/>
<path d="M168.62 96.1963C169.595 96.1963 170.386 95.4005 170.386 94.4188C170.386 93.4371 169.595 92.6413 168.62 92.6413C167.645 92.6413 166.854 93.4371 166.854 94.4188C166.854 95.4005 167.645 96.1963 168.62 96.1963Z" fill="#3F3D56"/>
<path d="M196.995 93.0356C197.153 93.0354 197.309 93.0664 197.454 93.1268C197.6 93.1873 197.732 93.276 197.843 93.388C197.955 93.4999 198.043 93.6329 198.104 93.7793C198.164 93.9257 198.195 94.0826 198.195 94.2411C198.195 94.3995 198.164 94.5564 198.104 94.7028C198.043 94.8492 197.955 94.9822 197.843 95.0941C197.732 95.2061 197.6 95.2949 197.454 95.3553C197.309 95.4158 197.153 95.4468 196.995 95.4465H178.421C178.104 95.4465 177.799 95.3195 177.574 95.0934C177.35 94.8674 177.224 94.5608 177.224 94.2411C177.224 93.9214 177.35 93.6148 177.574 93.3887C177.799 93.1626 178.104 93.0356 178.421 93.0356H196.995ZM196.995 92.7404H178.421C178.026 92.7404 177.647 92.8985 177.367 93.1799C177.087 93.4614 176.93 93.8431 176.93 94.2411C176.93 94.6391 177.087 95.0208 177.367 95.3022C177.647 95.5836 178.026 95.7417 178.421 95.7417H196.995C197.391 95.7417 197.77 95.5836 198.05 95.3022C198.329 95.0208 198.486 94.6391 198.486 94.2411C198.486 93.8431 198.329 93.4614 198.05 93.1799C197.77 92.8985 197.391 92.7404 196.995 92.7404Z" fill="#3F3D56"/>
<path d="M183.506 95.7417H175.684C175.488 95.742 175.294 95.7034 175.113 95.6282C174.932 95.5529 174.767 95.4424 174.628 95.303C174.49 95.1636 174.38 94.9981 174.305 94.8159C174.23 94.6336 174.191 94.4383 174.191 94.2411C174.191 94.0438 174.23 93.8485 174.305 93.6663C174.38 93.4841 174.49 93.3185 174.628 93.1791C174.767 93.0398 174.932 92.9293 175.113 92.854C175.294 92.7787 175.488 92.7401 175.684 92.7404H183.506C183.901 92.741 184.28 92.8993 184.559 93.1807C184.838 93.4621 184.995 93.8435 184.995 94.2411C184.995 94.6387 184.838 95.0201 184.559 95.3014C184.28 95.5828 183.901 95.7412 183.506 95.7417Z" fill="#FF5300"/>
<path d="M148.617 33.2766H16.6727V101.336H148.617V33.2766Z" fill="#F2F2F2"/>
<path d="M144.219 36.6584H21.0708V97.9541H144.219V36.6584Z" fill="white"/>
<path d="M128.946 88.6028H39.1734C39.0989 88.6028 39.0274 88.573 38.9747 88.52C38.9221 88.467 38.8925 88.3951 38.8925 88.3201V45.0134C38.8925 44.9385 38.9221 44.8665 38.9747 44.8135C39.0274 44.7605 39.0989 44.7307 39.1734 44.7307C39.2479 44.7307 39.3194 44.7605 39.3721 44.8135C39.4248 44.8665 39.4544 44.9385 39.4544 45.0134V88.0373H128.946C129.02 88.0373 129.092 88.0671 129.145 88.1201C129.197 88.1732 129.227 88.2451 129.227 88.3201C129.227 88.3951 129.197 88.467 129.145 88.52C129.092 88.573 129.02 88.6028 128.946 88.6028Z" fill="#3F3D56"/>
<path d="M58.3539 85.4924H50.1887C49.9676 85.4922 49.7556 85.4037 49.5993 85.2463C49.443 85.089 49.355 84.8756 49.3547 84.6531V73.3245C49.355 73.1019 49.443 72.8886 49.5993 72.7312C49.7556 72.5739 49.9676 72.4854 50.1887 72.4851H58.3539C58.575 72.4854 58.787 72.5739 58.9433 72.7312C59.0997 72.8886 59.1876 73.1019 59.1879 73.3245V84.6531C59.1876 84.8756 59.0997 85.089 58.9433 85.2463C58.787 85.4037 58.575 85.4922 58.3539 85.4924Z" fill="#FF5300"/>
<path d="M73.244 85.4924H65.0789C64.8578 85.4922 64.6458 85.4037 64.4894 85.2463C64.3331 85.089 64.2451 84.8756 64.2449 84.6531V62.5793C64.2451 62.3568 64.3331 62.1435 64.4894 61.9861C64.6458 61.8288 64.8578 61.7403 65.0789 61.74H73.244C73.4651 61.7403 73.6771 61.8288 73.8334 61.9861C73.9898 62.1435 74.0777 62.3568 74.078 62.5793V84.6531C74.0777 84.8756 73.9898 85.089 73.8334 85.2463C73.6771 85.4037 73.4651 85.4922 73.244 85.4924Z" fill="#FF5300"/>
<path d="M88.1343 85.4924H79.9691C79.748 85.4922 79.536 85.4036 79.3797 85.2463C79.2233 85.089 79.1354 84.8756 79.1351 84.6531V73.3245C79.1354 73.1019 79.2233 72.8886 79.3797 72.7312C79.536 72.5739 79.748 72.4854 79.9691 72.4851H88.1343C88.3554 72.4854 88.5674 72.5739 88.7237 72.7312C88.8801 72.8886 88.968 73.1019 88.9683 73.3245V84.6531C88.968 84.8756 88.8801 85.089 88.7237 85.2463C88.5674 85.4037 88.3554 85.4922 88.1343 85.4924Z" fill="#FF5300"/>
<path d="M103.024 85.4924H94.8593C94.6432 85.4971 94.4341 85.4154 94.2778 85.2652C94.1215 85.115 94.0307 84.9085 94.0253 84.6911V58.2998C94.0307 58.0824 94.1215 57.8759 94.2778 57.7257C94.4341 57.5755 94.6432 57.4938 94.8593 57.4985H103.024C103.24 57.4938 103.45 57.5755 103.606 57.7257C103.762 57.8759 103.853 58.0824 103.858 58.2998V84.6911C103.853 84.9085 103.762 85.115 103.606 85.2652C103.45 85.4154 103.24 85.4971 103.024 85.4924Z" fill="#FF5300"/>
<path d="M117.915 85.4924H109.75C109.528 85.4922 109.316 85.4037 109.16 85.2463C109.004 85.089 108.916 84.8756 108.916 84.6531V50.7032C108.916 50.4806 109.004 50.2673 109.16 50.1099C109.316 49.9526 109.528 49.8641 109.75 49.8638H117.915C118.136 49.8641 118.348 49.9526 118.504 50.1099C118.66 50.2673 118.748 50.4806 118.749 50.7032V84.6531C118.748 84.8756 118.66 85.089 118.504 85.2463C118.348 85.4037 118.136 85.4922 117.915 85.4924Z" fill="#FF5300"/>
<path d="M54.2713 69.092C55.2022 69.092 55.9569 68.3324 55.9569 67.3954C55.9569 66.4584 55.2022 65.6988 54.2713 65.6988C53.3403 65.6988 52.5856 66.4584 52.5856 67.3954C52.5856 68.3324 53.3403 69.092 54.2713 69.092Z" fill="#3F3D56"/>
<path d="M69.1615 58.064C70.0925 58.064 70.8472 57.3045 70.8472 56.3674C70.8472 55.4304 70.0925 54.6708 69.1615 54.6708C68.2305 54.6708 67.4758 55.4304 67.4758 56.3674C67.4758 57.3045 68.2305 58.064 69.1615 58.064Z" fill="#3F3D56"/>
<path d="M84.0517 69.092C84.9826 69.092 85.7373 68.3324 85.7373 67.3954C85.7373 66.4584 84.9826 65.6988 84.0517 65.6988C83.1207 65.6988 82.366 66.4584 82.366 67.3954C82.366 68.3324 83.1207 69.092 84.0517 69.092Z" fill="#3F3D56"/>
<path d="M98.9418 52.6915C99.8728 52.6915 100.627 51.9319 100.627 50.9949C100.627 50.0579 99.8728 49.2983 98.9418 49.2983C98.0108 49.2983 97.2561 50.0579 97.2561 50.9949C97.2561 51.9319 98.0108 52.6915 98.9418 52.6915Z" fill="#3F3D56"/>
<path d="M113.832 46.4706C114.763 46.4706 115.518 45.711 115.518 44.774C115.518 43.837 114.763 43.0774 113.832 43.0774C112.901 43.0774 112.146 43.837 112.146 44.774C112.146 45.711 112.901 46.4706 113.832 46.4706Z" fill="#3F3D56"/>
<path d="M84.0871 67.7754L69.1616 56.5235L54.4397 67.6216L54.1029 67.1692L69.1616 55.8167L84.0161 67.0152L98.7777 50.7568L98.8367 50.7325L113.727 44.6944L113.937 45.2189L99.106 51.2331L84.0871 67.7754Z" fill="#3F3D56"/>
<path d="M306.674 207H182.578C182.491 207 182.408 206.965 182.347 206.904C182.286 206.843 182.252 206.759 182.252 206.672C182.252 206.585 182.286 206.502 182.347 206.44C182.408 206.379 182.491 206.344 182.578 206.344H306.674C306.761 206.344 306.844 206.379 306.905 206.44C306.966 206.502 307 206.585 307 206.672C307 206.759 306.966 206.843 306.905 206.904C306.844 206.965 306.761 207 306.674 207Z" fill="#CCCCCC"/>
</g>
<defs>
<clipPath id="clip0_141_1661">
<rect width="307" height="207" fill="white"/>
</clipPath>
</defs>
</svg>
