<svg width="159" height="38" viewBox="0 0 159 38" fill="none" xmlns="http://www.w3.org/2000/svg">
<path d="M10.8077 3.09796C14.8439 3.09796 17.9687 4.21768 20.1821 6.45712C22.3955 8.67052 23.5022 11.8474 23.5022 15.9878C23.5022 20.1021 22.3955 23.279 20.1821 25.5184C17.9687 27.7578 14.8439 28.8776 10.8077 28.8776H0.847441V3.09796H10.8077ZM10.5343 24.581C12.9821 24.581 14.8179 23.8518 16.0418 22.3936C17.2917 20.9093 17.9167 18.774 17.9167 15.9878C17.9167 13.2015 17.2917 11.0792 16.0418 9.62098C14.8179 8.1367 12.9821 7.39456 10.5343 7.39456H6.23772V24.581H10.5343ZM30.9557 6.53524C29.836 6.53524 29.0027 6.30088 28.4558 5.83216C27.909 5.3374 27.6356 4.6213 27.6356 3.68386C27.6356 2.72038 27.909 2.00428 28.4558 1.53556C29.0027 1.0408 29.836 0.793421 30.9557 0.793421C32.0754 0.793421 32.9087 1.0408 33.4555 1.53556C34.0024 2.00428 34.2758 2.72038 34.2758 3.68386C34.2758 4.6213 34.0024 5.3374 33.4555 5.83216C32.9087 6.30088 32.0754 6.53524 30.9557 6.53524ZM33.6118 9.34756V28.8776H28.2605V9.34756H33.6118ZM57.291 4.69942L57.9159 8.5273C57.8118 8.5273 57.6946 8.5273 57.5644 8.5273C57.4602 8.50126 57.3431 8.48824 57.2129 8.48824C56.015 8.48824 55.1166 8.76166 54.5177 9.3085C53.9188 9.8293 53.6193 10.5584 53.6193 11.4959L51.432 10.5975C51.432 9.55588 51.6403 8.5924 52.0569 7.70704C52.4736 6.79564 53.0855 6.06652 53.8928 5.51968C54.726 4.97284 55.7156 4.69942 56.8613 4.69942C56.9134 4.69942 56.9785 4.69942 57.0566 4.69942C57.1347 4.69942 57.2129 4.69942 57.291 4.69942ZM50.8851 25.2059C52.9944 25.2059 54.6219 25.6616 55.7676 26.573C56.9134 27.4844 57.4863 28.7604 57.4863 30.4009C57.4863 31.8852 57.0566 33.1351 56.1973 34.1507C55.338 35.1923 54.1271 35.9735 52.5647 36.4943C51.0284 37.0151 49.2446 37.2755 47.2135 37.2755C43.8543 37.2755 41.3936 36.8067 39.8312 35.8693C38.2948 34.9319 37.5266 33.708 37.5266 32.1977C37.5266 31.13 37.9302 30.2316 38.7375 29.5025C39.5708 28.7734 40.9379 28.3698 42.8388 28.2917L42.6435 28.9166C41.2894 28.6823 40.2478 28.2396 39.5187 27.5886C38.8156 26.9115 38.4641 25.9871 38.4641 24.8153C38.4641 23.6175 38.9198 22.641 39.8312 21.8858C40.7686 21.1046 42.0315 20.6489 43.62 20.5187L45.9636 21.6124H45.4167C44.297 21.6905 43.5028 21.9249 43.0341 22.3155C42.5914 22.68 42.3701 23.0967 42.3701 23.5654C42.3701 24.1122 42.5784 24.5289 42.995 24.8153C43.4377 25.0757 44.0627 25.2059 44.8699 25.2059H50.8851ZM47.2526 33.6038C48.6066 33.6038 49.7133 33.4866 50.5727 33.2523C51.458 33.0179 52.109 32.7185 52.5257 32.3539C52.9683 31.9893 53.1897 31.5857 53.1897 31.143C53.1897 30.6483 52.9944 30.2447 52.6038 29.9322C52.2132 29.6457 51.5101 29.5025 50.4945 29.5025H43.8934C43.2684 29.5025 42.7476 29.6588 42.331 29.9712C41.9404 30.2837 41.7451 30.7134 41.7451 31.2602C41.7451 31.9893 42.2268 32.5622 43.1903 32.9789C44.1798 33.3955 45.5339 33.6038 47.2526 33.6038ZM47.2916 8.95696C49.1144 8.95696 50.6898 9.23038 52.0179 9.77722C53.372 10.298 54.4005 11.0532 55.1036 12.0427C55.8327 13.0322 56.1973 14.217 56.1973 15.5972C56.1973 16.9512 55.8327 18.123 55.1036 19.1126C54.4005 20.1021 53.372 20.8703 52.0179 21.4171C50.6898 21.9379 49.1144 22.1983 47.2916 22.1983C44.4012 22.1983 42.1878 21.6124 40.6514 20.4406C39.1411 19.2428 38.3859 17.6283 38.3859 15.5972C38.3859 14.217 38.7375 13.0322 39.4406 12.0427C40.1697 11.0532 41.1983 10.298 42.5263 9.77722C43.8543 9.23038 45.4428 8.95696 47.2916 8.95696ZM47.2916 12.3161C46.25 12.3161 45.3907 12.6026 44.7137 13.1754C44.0366 13.7483 43.6981 14.5425 43.6981 15.5581C43.6981 16.5737 44.0366 17.3809 44.7137 17.9798C45.3907 18.5527 46.25 18.8391 47.2916 18.8391C48.3332 18.8391 49.1795 18.5527 49.8305 17.9798C50.5076 17.3809 50.8461 16.5737 50.8461 15.5581C50.8461 14.5425 50.5076 13.7483 49.8305 13.1754C49.1795 12.6026 48.3332 12.3161 47.2916 12.3161ZM63.4167 6.53524C62.297 6.53524 61.4637 6.30088 60.9168 5.83216C60.37 5.3374 60.0966 4.6213 60.0966 3.68386C60.0966 2.72038 60.37 2.00428 60.9168 1.53556C61.4637 1.0408 62.297 0.793421 63.4167 0.793421C64.5364 0.793421 65.3697 1.0408 65.9165 1.53556C66.4634 2.00428 66.7368 2.72038 66.7368 3.68386C66.7368 4.6213 66.4634 5.3374 65.9165 5.83216C65.3697 6.30088 64.5364 6.53524 63.4167 6.53524ZM66.0728 9.34756V28.8776H60.7215V9.34756H66.0728Z" fill="#FF5300"/>
<path d="M80.8072 29.2682C78.7501 29.2682 76.9533 28.8645 75.417 28.0573C73.9066 27.2501 72.7348 26.0913 71.9016 24.581C71.0683 23.0706 70.6516 21.2478 70.6516 19.1126C70.6516 16.9773 71.0683 15.1545 71.9016 13.6442C72.7348 12.1338 73.8936 10.9751 75.3779 10.1678C76.8882 9.36058 78.6069 8.95696 80.5338 8.95696C82.5129 8.95696 84.1924 9.36058 85.5726 10.1678C86.9527 10.949 88.0073 12.0297 88.7364 13.4098C89.4655 14.7639 89.8301 16.3133 89.8301 18.0579C89.8301 18.5787 89.8171 19.0735 89.791 19.5422C89.765 20.0109 89.7259 20.4276 89.6739 20.7921H74.0889V17.0814H87.3303L84.7523 18.0189C84.7523 16.3784 84.3747 15.1154 83.6196 14.2301C82.8904 13.3447 81.8488 12.902 80.4948 12.902C79.5052 12.902 78.6459 13.1364 77.9168 13.6051C77.2137 14.0738 76.6799 14.7769 76.3153 15.7143C75.9508 16.6257 75.7685 17.7845 75.7685 19.1907C75.7685 20.5708 75.9638 21.7166 76.3544 22.628C76.771 23.5133 77.3439 24.1773 78.073 24.62C78.8282 25.0627 79.7266 25.284 80.7682 25.284C81.9139 25.284 82.8384 25.0627 83.5414 24.62C84.2445 24.1773 84.7914 23.5654 85.182 22.7842L89.4395 24.4247C89.0229 25.4403 88.3849 26.3126 87.5256 27.0417C86.6923 27.7709 85.6897 28.3307 84.5179 28.7213C83.3722 29.0859 82.1353 29.2682 80.8072 29.2682ZM94.365 28.8776V9.34756H99.1694L99.4819 15.2066L98.8179 14.5816C99.1303 13.3056 99.6251 12.251 100.302 11.4177C100.979 10.5845 101.799 9.97252 102.763 9.58192C103.752 9.16528 104.833 8.95696 106.005 8.95696C107.359 8.95696 108.557 9.21736 109.598 9.73816C110.666 10.259 111.499 11.0532 112.098 12.1208C112.723 13.1624 113.036 14.4774 113.036 16.0659V28.8776H107.684V17.5892C107.684 15.9227 107.359 14.7769 106.708 14.1519C106.057 13.5009 105.211 13.1754 104.169 13.1754C103.44 13.1754 102.724 13.3577 102.021 13.7223C101.344 14.0608 100.784 14.6207 100.341 15.4019C99.9246 16.1831 99.7162 17.2247 99.7162 18.5267V28.8776H94.365ZM127.415 8.95696C129.16 8.95696 130.631 9.21736 131.829 9.73816C133.053 10.2329 134.029 10.923 134.759 11.8083C135.514 12.6677 136.048 13.6311 136.36 14.6988L131.36 16.4955C131.1 15.3237 130.657 14.4384 130.032 13.8395C129.407 13.2405 128.561 12.9411 127.493 12.9411C126.504 12.9411 125.658 13.1754 124.954 13.6442C124.251 14.0868 123.718 14.7769 123.353 15.7143C122.988 16.6257 122.806 17.7715 122.806 19.1516C122.806 20.5317 122.988 21.6775 123.353 22.5889C123.744 23.5003 124.29 24.1773 124.994 24.62C125.723 25.0627 126.569 25.284 127.532 25.284C128.314 25.284 128.978 25.1538 129.525 24.8934C130.071 24.607 130.514 24.2034 130.853 23.6826C131.217 23.1618 131.464 22.5368 131.595 21.8077L136.438 23.3701C136.152 24.5419 135.618 25.5705 134.837 26.4558C134.055 27.3412 133.053 28.0313 131.829 28.526C130.605 29.0208 129.186 29.2682 127.572 29.2682C125.566 29.2682 123.796 28.8645 122.259 28.0573C120.723 27.2501 119.538 26.0913 118.705 24.581C117.872 23.0706 117.455 21.2478 117.455 19.1126C117.455 16.9773 117.872 15.1545 118.705 13.6442C119.538 12.1338 120.71 10.9751 122.22 10.1678C123.731 9.36058 125.462 8.95696 127.415 8.95696ZM158.497 9.34756L150.607 30.0884C149.982 31.8591 149.279 33.2653 148.497 34.3069C147.742 35.3485 146.857 36.1037 145.841 36.5724C144.852 37.0411 143.667 37.2755 142.287 37.2755C141.271 37.2755 140.334 37.1453 139.474 36.8849C138.641 36.6505 137.912 36.338 137.287 35.9474L138.42 32.0805C138.915 32.4711 139.435 32.7445 139.982 32.9007C140.529 33.083 141.154 33.1742 141.857 33.1742C142.586 33.1742 143.211 33.0179 143.732 32.7054C144.279 32.393 144.735 31.768 145.099 30.8306L145.763 29.151L143.615 24.0732L137.639 9.34756H143.576L147.286 21.0656L148.302 24.9716L149.513 20.8312L153.067 9.34756H158.497Z" fill="#373737"/>
</svg>
